<?xml version="1.0" encoding="UTF-8"?>
<svg width="1157px" height="188px" viewBox="0 0 1157 188" version="1.1" xmlns="http://www.w3.org/2000/svg" xmlns:xlink="http://www.w3.org/1999/xlink">
    <!-- Generator: Sketch 52.5 (67469) - http://www.bohemiancoding.com/sketch -->
    <title>bg</title>
    <desc>Created with Sketch.</desc>
    <defs>
        <linearGradient x1="88.1424385%" y1="25.2984764%" x2="-1.59905255%" y2="22.5068377%" id="linearGradient-1">
            <stop stop-color="#E3E9ED" offset="0%"></stop>
            <stop stop-color="#EAEFF2" offset="22.8159251%"></stop>
            <stop stop-color="#0074EF" offset="28.6596175%"></stop>
            <stop stop-color="#5F5FF6" offset="43.7967275%"></stop>
            <stop stop-color="#213086" offset="64.2893873%"></stop>
            <stop stop-color="#F2F4F8" offset="66.2932807%"></stop>
            <stop stop-color="#F8FAFB" offset="100%"></stop>
        </linearGradient>
        <linearGradient x1="-15.3280834%" y1="43.122087%" x2="176.739658%" y2="-65.2947331%" id="linearGradient-2">
            <stop stop-color="#194C80" offset="0%"></stop>
            <stop stop-color="#3636CC" offset="100%"></stop>
        </linearGradient>
    </defs>
    <g id="Page-1" stroke="none" stroke-width="1" fill="none" fill-rule="evenodd">
        <g id="bg">
            <path d="M58.4021367,133.464488 C105.07224,169.307572 166.003939,187.229114 241.197233,187.229114 C353.987175,187.229114 387.741157,105.77177 482.83241,94.8011928 C577.923662,83.8306158 651.169869,90.1147327 739.254016,124.244387 C827.338163,158.374042 904.349853,173.33785 999.560939,137.406077 C1091.586,102.676681 1095.99787,83.1586844 1156.06752,57.5682033 C1156.13939,47.4252111 1156.13939,29.2260567 1156.13939,13.0690297 C1104.30996,40.5674313 1062.14593,81.8447967 1011.2632,117.881545 C909.372403,190.043802 800.09001,84.8401497 730.145057,54.8875572 C660.200104,24.9349648 558.575236,17.5394344 453.463309,84.8401497 C348.351382,152.140865 347.462251,155.859469 302.014703,164.102452 C271.716338,169.597774 218.504331,150.154213 142.378685,105.77177 L58.4021367,133.464488 Z" id="Path-17" fill="url(#linearGradient-1)"></path>
            <path d="M0.912932305,32.2478669 C19.7435554,28.3574066 45.1023413,26.7431548 76.4579744,29.2460353 C161.151314,36.0064574 317.214398,132.384198 461.882266,152.279792 C494.278113,156.735063 566.209982,149.530168 662.409472,132.384198 C687.271893,127.952882 728.977538,119.725766 787.526407,107.702851 C866.892647,86.5365989 915.916786,75.953473 934.598823,75.953473 C940.399109,75.953473 1022.11227,114.087204 1062.04553,124.943652 C1091.89168,133.057769 1124.91183,127.3928 1156.36244,115.571333 C1156.36244,120.384574 1156.36244,134.794155 1156.36244,143.375 C1150.29297,144.936354 1143.88358,138.43231 1137.90413,139.354979 C1097.08658,145.653397 1019.42348,135.102687 904.914822,107.702851 C859.484723,112.931177 828.712463,118.678111 812.598042,124.943652 C748.774763,149.759149 706.116719,179.193929 650.428927,182.542654 C502.416441,191.443223 369.162599,126.432379 257.928636,115.755967 C181.046911,108.376738 64.8890133,100.072714 0.912932305,87.5738408 C0.912932305,72.0623391 0.912932305,43.4886226 0.912932305,32.2478669 Z" id="Path-16" fill="url(#linearGradient-2)"></path>
            <path d="M1.00038144,61.3728486 C24.5740127,51.6155525 52.5714534,46.7369045 84.9927035,46.7369045 C167.325286,46.7369045 270.293111,112.903339 375.525441,130.635015 C480.757771,148.36669 630.81248,130.635015 691.148337,88.6859596 C751.484195,46.7369045 818.062492,-11.8759749 880.806412,2.93360934 C943.550332,17.7431936 990.660369,115.427174 1073.31248,130.635015 C1102.0719,135.926695 1129.99057,133.150087 1156.35724,126.537109 C1156.35724,134.602358 1155.98747,138.728617 1156.35724,143.439424 C1130.09099,150.477074 1101.9469,154.604498 1073.31248,154.604498 C977.842068,154.604498 910.874776,93.787028 813.223212,115.427174 C780.027734,122.783482 740.027868,145.13751 697.710308,154.604498 C615.541757,172.986671 515.49666,174.265982 375.525441,143.439424 C200.458095,104.883471 64.8024137,131.266655 0.925908767,169.8452 C0.925908767,149.198548 0.925908767,78.029506 1.00038144,61.3728486 Z" id="Path-12" fill="#0B2239"></path>
            <path d="M706.393512,136.168547 C705.958512,136.085547 705.507512,136.066547 705.065512,136.068547 C704.913512,136.069547 704.760512,136.068547 704.607512,136.068547 C704.592512,135.683547 704.568512,135.298547 704.532512,134.914547 C704.471512,134.277547 704.363512,133.203547 703.609512,133.000547 C703.497512,132.970547 703.191512,134.183547 703.168512,134.305547 C703.086512,134.739547 703.067512,135.189547 703.069512,135.632547 C703.070512,135.785547 703.070512,135.939547 703.069512,136.092547 C702.704512,136.106547 702.338512,136.131547 701.976512,136.182547 C701.343512,136.270547 700.206512,136.322547 700.000512,137.084547 C699.971512,137.194547 701.182512,137.501547 701.303512,137.523547 C701.885512,137.635547 702.495512,137.631547 703.092512,137.627547 C703.107512,137.993547 703.131512,138.358547 703.182512,138.722547 C703.270512,139.354547 703.323512,140.491547 704.084512,140.696547 C704.195512,140.727547 704.501512,139.516547 704.524512,139.394547 C704.635512,138.813547 704.631512,138.203547 704.628512,137.606547 C705.014512,137.592547 705.399512,137.567547 705.783512,137.531547 C706.420512,137.471547 707.494512,137.361547 707.698512,136.608547 C707.727512,136.497547 706.515512,136.190547 706.393512,136.168547" id="Fill-6" fill="#71CEFC"></path>
            <path d="M56.3935125,56.1685472 C55.9585125,56.0855472 55.5075125,56.0665472 55.0655125,56.0685472 C54.9135125,56.0695472 54.7605125,56.0685472 54.6075125,56.0685472 C54.5925125,55.6835472 54.5685125,55.2985472 54.5325125,54.9145472 C54.4715125,54.2775472 54.3635125,53.2035472 53.6095125,53.0005472 C53.4975125,52.9705472 53.1915125,54.1835472 53.1685125,54.3055472 C53.0865125,54.7395472 53.0675125,55.1895472 53.0695125,55.6325472 C53.0705125,55.7855472 53.0705125,55.9395472 53.0695125,56.0925472 C52.7045125,56.1065472 52.3385125,56.1315472 51.9765125,56.1825472 C51.3435125,56.2705472 50.2065125,56.3225472 50.0005125,57.0845472 C49.9715125,57.1945472 51.1825125,57.5015472 51.3035125,57.5235472 C51.8855125,57.6355472 52.4955125,57.6315472 53.0925125,57.6275472 C53.1075125,57.9935472 53.1315125,58.3585472 53.1825125,58.7225472 C53.2705125,59.3545472 53.3235125,60.4915472 54.0845125,60.6965472 C54.1955125,60.7275472 54.5015125,59.5165472 54.5245125,59.3945472 C54.6355125,58.8135472 54.6315125,58.2035472 54.6285125,57.6065472 C55.0145125,57.5925472 55.3995125,57.5675472 55.7835125,57.5315472 C56.4205125,57.4715472 57.4945125,57.3615472 57.6985125,56.6085472 C57.7275125,56.4975472 56.5155125,56.1905472 56.3935125,56.1685472" id="Fill-6" fill="#71CEFC"></path>
            <path d="M846.393512,56.1685472 C845.958512,56.0855472 845.507512,56.0665472 845.065512,56.0685472 C844.913512,56.0695472 844.760512,56.0685472 844.607512,56.0685472 C844.592512,55.6835472 844.568512,55.2985472 844.532512,54.9145472 C844.471512,54.2775472 844.363512,53.2035472 843.609512,53.0005472 C843.497512,52.9705472 843.191512,54.1835472 843.168512,54.3055472 C843.086512,54.7395472 843.067512,55.1895472 843.069512,55.6325472 C843.070512,55.7855472 843.070512,55.9395472 843.069512,56.0925472 C842.704512,56.1065472 842.338512,56.1315472 841.976512,56.1825472 C841.343512,56.2705472 840.206512,56.3225472 840.000512,57.0845472 C839.971512,57.1945472 841.182512,57.5015472 841.303512,57.5235472 C841.885512,57.6355472 842.495512,57.6315472 843.092512,57.6275472 C843.107512,57.9935472 843.131512,58.3585472 843.182512,58.7225472 C843.270512,59.3545472 843.323512,60.4915472 844.084512,60.6965472 C844.195512,60.7275472 844.501512,59.5165472 844.524512,59.3945472 C844.635512,58.8135472 844.631512,58.2035472 844.628512,57.6065472 C845.014512,57.5925472 845.399512,57.5675472 845.783512,57.5315472 C846.420512,57.4715472 847.494512,57.3615472 847.698512,56.6085472 C847.727512,56.4975472 846.515512,56.1905472 846.393512,56.1685472" id="Fill-6" fill="#C7EBFF"></path>
            <path d="M179.868439,89.0520198 C178.343355,89.5578487 178.992259,92.0490085 180.538868,91.9204938 C180.863003,91.8932714 181.170679,91.7520952 181.411248,91.5362158 C181.469492,91.5070942 181.528368,91.4773396 181.582179,91.4361895 C182.821112,90.4783433 181.02064,88.6696411 179.868439,89.0520198" id="Fill-1" fill="#92CDFA"></path>
            <path d="M29.8684387,129.05202 C28.3433551,129.557849 28.9922595,132.049009 30.5388677,131.920494 C30.8630033,131.893271 31.170679,131.752095 31.4112484,131.536216 C31.4694915,131.507094 31.5283677,131.47734 31.5821793,131.43619 C32.8211119,130.478343 31.0206396,128.669641 29.8684387,129.05202" id="Fill-1" fill="#92CDFA"></path>
            <path d="M539.868439,139.05202 C538.343355,139.557849 538.992259,142.049009 540.538868,141.920494 C540.863003,141.893271 541.170679,141.752095 541.411248,141.536216 C541.469492,141.507094 541.528368,141.47734 541.582179,141.43619 C542.821112,140.478343 541.02064,138.669641 539.868439,139.05202" id="Fill-1" fill="#92CDFA"></path>
            <path d="M739.868439,89.0520198 C738.343355,89.5578487 738.992259,92.0490085 740.538868,91.9204938 C740.863003,91.8932714 741.170679,91.7520952 741.411248,91.5362158 C741.469492,91.5070942 741.528368,91.4773396 741.582179,91.4361895 C742.821112,90.4783433 741.02064,88.6696411 739.868439,89.0520198" id="Fill-1" fill="#92CDFA"></path>
            <path d="M859.868439,89.0520198 C858.343355,89.5578487 858.992259,92.0490085 860.538868,91.9204938 C860.863003,91.8932714 861.170679,91.7520952 861.411248,91.5362158 C861.469492,91.5070942 861.528368,91.4773396 861.582179,91.4361895 C862.821112,90.4783433 861.02064,88.6696411 859.868439,89.0520198" id="Fill-1" fill="#92CDFA"></path>
        </g>
    </g>
</svg>